<svg aria-hidden="true" style="position:absolute;width:0;height:0;overflow:hidden" xmlns="http://www.w3.org/2000/svg"><defs><symbol id="icon-Union-1" viewBox="0 0 27 32"><path fill="#afb1b8" style="fill:var(--color1, #afb1b8)" d="m4 .475 4.672 4.423L0 4.893v21.458h22.667v-8.205l4.667 4.418V.475H4.001zm18.461 17.153L9.214 5.088h13.247v12.54zm-4.112 5.585H3.587V8.78H4.63v13.455h13.719v.977zM7.073 29.208l-.545 1.123-.545-1.123h-.457l.796 1.497v.873h.413v-.873l.794-1.497h-.455zm.686 2.37.192-.552h.918l.193.552h.43l-.897-2.37h-.37l-.895 2.37h.428zm.65-1.867.343.983h-.687l.343-.983zm2.172.926a.533.533 0 0 0-.089.297v.004c0 .2.07.362.21.487s.329.186.563.186a.973.973 0 0 0 .605-.191l.133.158h.459l-.348-.412c.137-.187.205-.426.205-.717h-.343a.946.946 0 0 1-.099.434l-.458-.54.161-.117a.913.913 0 0 0 .244-.244l.002-.003a.517.517 0 0 0 .075-.269v-.013a.484.484 0 0 0-.166-.366h-.001a.596.596 0 0 0-.4-.154h-.025.001a.629.629 0 0 0-.455.163.575.575 0 0 0-.169.439c0 .076.018.155.053.236.037.081.102.18.193.296-.175.126-.293.235-.353.327zm1.069.524a.6.6 0 0 1-.374.133h-.019a.387.387 0 0 1-.264-.103.351.351 0 0 1-.106-.253v-.014.001c0-.127.065-.24.195-.339l.051-.036.517.611zm-.425-1.05c-.112-.137-.168-.252-.168-.343 0-.079.023-.145.069-.197a.233.233 0 0 1 .174-.078h.011-.001.009c.065 0 .125.025.169.067.047.043.07.096.07.157v.009a.295.295 0 0 1-.1.221l-.051.04-.181.124zm3.858 1.288c.163-.142.256-.34.28-.592h-.41c-.022.169-.073.29-.155.363s-.203.109-.365.109c-.177 0-.311-.067-.403-.202s-.137-.33-.137-.586v-.21c.003-.253.051-.444.147-.575a.484.484 0 0 1 .413-.197c.154 0 .271.038.35.113s.13.198.15.369h.41c-.027-.26-.119-.46-.279-.603s-.37-.213-.631-.213a.958.958 0 0 0-.514.139.9.9 0 0 0-.338.388l-.002.006c-.076.166-.12.359-.12.563v.029-.001.221c.003.218.044.409.122.575s.189.292.332.383a.934.934 0 0 0 .5.133c.27 0 .487-.071.649-.212zm2.42-.332c.08-.175.121-.38.121-.612V30.3c0-.211-.046-.412-.128-.592l.004.009a.907.907 0 0 0-.343-.398l-.004-.002c-.149-.093-.319-.14-.513-.14s-.364.047-.514.141a.924.924 0 0 0-.347.405 1.433 1.433 0 0 0-.122.583v.031-.002.133c.001.227.042.427.123.6a.944.944 0 0 0 .349.403.96.96 0 0 0 .514.14.95.95 0 0 0 .515-.14.92.92 0 0 0 .345-.404zm-.441-1.34c.1.14.149.341.149.604v.123c0 .267-.049.47-.148.609a.481.481 0 0 1-.42.209h-.017a.492.492 0 0 1-.405-.212l-.001-.002c-.101-.142-.151-.343-.151-.604v-.137c.002-.255.053-.452.153-.591a.486.486 0 0 1 .401-.21h.018-.001c.183 0 .323.07.422.21z"/></symbol></defs></svg>